<?xml version="1.0" encoding="UTF-8" standalone="no"?>
<!DOCTYPE svg PUBLIC "-//W3C//DTD SVG 1.1//EN" "http://www.w3.org/Graphics/SVG/1.1/DTD/svg11.dtd">
<svg width="100%" height="100%" viewBox="0 0 397 91" version="1.1" xmlns="http://www.w3.org/2000/svg" xmlns:xlink="http://www.w3.org/1999/xlink" xml:space="preserve" xmlns:serif="http://www.serif.com/" style="fill-rule:evenodd;clip-rule:evenodd;stroke-linejoin:round;stroke-miterlimit:2;">
    <g id="Artboard1" transform="matrix(1,0,0,1,-219.575,-250.475)">
        <rect x="219.575" y="250.475" width="396.828" height="90.192" style="fill:none;"/>
        <g transform="matrix(0.429812,0,0,0.429812,236.387,91.2053)">
            <g transform="matrix(1,0,0,1,0,174.212)">
                <g transform="matrix(1.05639,0,0,1.05639,-3.67993,-12.6863)">
                    <circle cx="70.665" cy="274.808" r="24.318" style="fill:white;"/>
                </g>
                <g transform="matrix(1.05639,0,0,1.05639,-26.8903,10.4137)">
                    <path d="M93.638,282.798C90.329,292.3 81.288,299.126 70.665,299.126C57.244,299.126 46.347,288.23 46.347,274.808C46.347,264.145 53.226,255.075 62.785,251.798C62.77,252.177 62.763,252.559 62.763,252.942C62.763,269.429 76.149,282.815 92.636,282.815C92.972,282.815 93.305,282.809 93.638,282.798Z" style="fill:white;"/>
                </g>
                <g transform="matrix(1,0,0,1.65025,0,-212.249)">
                    <path d="M78.401,315.434C92.238,313.407 102.528,305.848 102.528,296.845C102.528,296.615 102.522,296.387 102.508,296.16C112.489,298.296 119.649,304.067 119.649,310.842C119.649,319.434 108.138,326.409 93.96,326.409L68.22,326.409C67.912,326.409 67.638,326.29 67.536,326.114C67.434,325.937 67.528,325.741 67.769,325.624C72.945,323.05 76.746,319.497 78.401,315.434Z" style="fill:white;"/>
                </g>
            </g>
            <g transform="matrix(0.901845,0,0,0.901845,18.2051,203.801)">
                <path d="M199.333,312.925L205.864,317.119C200.53,325.424 191.337,330.446 181.467,330.446C165.464,330.446 152.471,317.453 152.471,301.45C152.471,285.446 165.464,272.453 181.467,272.453C191.337,272.453 200.53,277.475 205.864,285.78L199.333,289.974C195.427,283.892 188.695,280.215 181.467,280.215C169.747,280.215 160.233,289.73 160.233,301.45C160.233,313.169 169.747,322.684 181.467,322.684C188.695,322.684 195.427,319.007 199.333,312.925ZM263.595,272.453C279.598,272.453 292.591,285.446 292.591,301.45C292.591,317.453 279.598,330.446 263.595,330.446C247.591,330.446 234.599,317.453 234.599,301.45C234.599,285.446 247.591,272.453 263.595,272.453ZM263.595,280.215C251.875,280.215 242.361,289.73 242.361,301.45C242.361,313.169 251.875,322.684 263.595,322.684C275.314,322.684 284.829,313.169 284.829,301.45C284.829,289.73 275.314,280.215 263.595,280.215ZM408.42,322.893C403.268,327.584 396.42,330.446 388.91,330.446C372.907,330.446 359.914,317.453 359.914,301.45C359.914,285.446 372.907,272.453 388.91,272.453C396.42,272.453 403.268,275.315 408.42,280.006L408.42,254.735L416.182,254.735L416.182,327.12L408.42,327.12L408.42,322.893ZM388.91,280.215C377.191,280.215 367.676,289.73 367.676,301.45C367.676,313.169 377.191,322.684 388.91,322.684C400.63,322.684 410.144,313.169 410.144,301.45C410.144,289.73 400.63,280.215 388.91,280.215ZM301.151,305.697L301.151,274.428L308.913,274.428L308.913,305.697C308.913,314.86 316.352,322.298 325.514,322.298C334.677,322.298 342.115,314.86 342.115,305.697L342.107,305.697L342.107,274.428L349.869,274.428L349.869,305.697L349.877,305.697C349.877,319.143 338.96,330.06 325.514,330.06C312.068,330.06 301.151,319.143 301.151,305.697ZM218.053,254.735L225.815,254.735L225.815,327.12L218.053,327.12L218.053,254.735Z" style="fill:white;"/>
            </g>
            <g transform="matrix(-1,0,0,1,1035.07,0)">
                <path d="M386.537,495L386.537,498.812L393.537,498.812L393.537,433.532L386.537,433.532L386.537,456.323C381.89,452.092 375.715,449.511 368.942,449.511C354.509,449.511 342.792,461.229 342.792,475.661C342.792,490.094 354.509,501.811 368.942,501.811C375.715,501.811 381.89,499.231 386.537,495ZM368.942,456.511C379.511,456.511 388.092,465.092 388.092,475.661C388.092,486.231 379.511,494.811 368.942,494.811C358.373,494.811 349.792,486.231 349.792,475.661C349.792,465.092 358.373,456.511 368.942,456.511ZM316.417,479.349L316.417,451.292L309.417,451.292L309.417,479.349C309.417,487.486 302.904,494.112 294.857,494.112C286.811,494.112 280.297,487.486 280.297,479.349L280.404,479.349L280.404,451.292L273.404,451.292L273.404,479.349L273.297,479.349C273.297,491.371 282.969,501.112 294.857,501.112C306.746,501.112 316.417,491.371 316.417,479.349ZM257.666,476.165C257.224,486.344 248.821,494.472 238.534,494.472C231.494,494.472 225.021,490.608 221.679,484.412L220.018,481.331L213.857,484.654L215.518,487.734C220.081,496.196 228.92,501.472 238.534,501.472C252.967,501.472 264.684,489.754 264.684,475.322C264.684,460.889 252.967,449.172 238.534,449.172C225.208,449.172 214.013,459.193 212.544,472.439L212.111,476.34L257.666,476.165ZM256.673,469.169C247.521,469.204 220.35,469.308 220.35,469.308C222.891,461.609 230.134,456.172 238.534,456.172C246.951,456.172 254.107,461.614 256.673,469.169ZM333.749,433.532L326.749,433.532L326.749,498.812L333.749,498.812L333.749,433.532Z" style="fill:white;"/>
            </g>
            <g transform="matrix(0.887511,0,0,0.887511,271.546,207.782)">
                <path d="M154.605,326.013L154.605,256.067C154.605,254.823 155.615,253.813 156.859,253.813C158.103,253.813 159.112,254.823 159.112,256.067L159.112,285.664C164.071,278.658 172.239,274.081 181.467,274.081C196.572,274.081 208.836,286.344 208.836,301.45C208.836,316.555 196.572,328.818 181.467,328.818C172.239,328.818 164.071,324.241 159.112,317.235L159.112,326.013C159.112,327.257 158.103,328.267 156.859,328.267C155.615,328.267 154.605,327.257 154.605,326.013ZM181.467,278.588C168.849,278.588 158.605,288.832 158.605,301.45C158.605,314.067 168.849,324.311 181.467,324.311C194.085,324.311 204.329,314.067 204.329,301.45C204.329,288.832 194.085,278.588 181.467,278.588ZM359.448,305.987L359.448,275.929C359.448,274.685 360.458,273.675 361.701,273.675C362.945,273.675 363.955,274.685 363.955,275.929L363.955,305.987C363.955,316.093 372.056,324.311 382.05,324.311C392.045,324.311 400.146,316.093 400.146,305.987L400.146,275.929C400.146,274.685 401.156,273.675 402.399,273.675C403.643,273.675 404.653,274.685 404.653,275.929L404.653,327.917C404.653,328.103 404.63,328.283 404.588,328.456C404.63,328.629 404.653,328.81 404.653,328.996C404.653,344.576 392.132,357.212 376.726,357.212C373.338,357.212 370.091,356.601 367.085,355.483C365.92,355.049 365.325,353.751 365.759,352.585C366.193,351.419 367.491,350.825 368.657,351.259C371.172,352.195 373.891,352.705 376.726,352.705C389.659,352.705 400.146,342.075 400.146,328.996C400.146,328.81 400.168,328.629 400.211,328.456C400.168,328.283 400.146,328.103 400.146,327.917L400.146,319.663C396.02,325.221 389.446,328.818 382.05,328.818C369.583,328.818 359.448,318.595 359.448,305.987ZM222.737,300.703C222.729,300.951 222.725,301.2 222.725,301.45C222.725,314.291 233.151,324.717 245.993,324.717C254.547,324.717 262.411,320.023 266.472,312.494C267.062,311.399 268.43,310.989 269.525,311.58C270.62,312.17 271.029,313.538 270.439,314.633C265.592,323.621 256.204,329.224 245.993,329.224C230.664,329.224 218.218,316.779 218.218,301.45C218.218,286.12 230.664,273.675 245.993,273.675C260.147,273.675 272.037,284.319 273.598,298.387L273.876,300.899L222.737,300.703ZM223.321,296.198C233.41,296.237 268.701,296.372 268.701,296.372C266.359,285.855 256.992,278.182 245.993,278.182C234.957,278.182 225.705,285.882 223.321,296.198ZM284.857,326.013L284.857,275.929C284.857,274.685 285.867,273.675 287.11,273.675C288.354,273.675 289.364,274.685 289.364,275.929L289.364,288.047C290.293,286.586 291.355,285.213 292.544,283.948C297.508,278.662 304.247,275.703 311.268,275.703C312.512,275.703 313.522,276.713 313.522,277.957C313.522,279.201 312.512,280.21 311.268,280.21C305.475,280.21 299.925,282.672 295.829,287.033C291.683,291.447 289.364,297.436 289.364,303.678L289.364,326.013C289.364,327.257 288.354,328.267 287.11,328.267C285.867,328.267 284.857,327.257 284.857,326.013ZM321.911,326.013L321.911,275.929C321.911,274.685 322.921,273.675 324.165,273.675C325.409,273.675 326.418,274.685 326.418,275.929L326.418,288.047C327.347,286.586 328.41,285.213 329.598,283.948C334.563,278.662 341.301,275.703 348.322,275.703C349.566,275.703 350.576,276.713 350.576,277.957C350.576,279.201 349.566,280.21 348.322,280.21C342.53,280.21 336.979,282.672 332.883,287.033C328.738,291.447 326.418,297.436 326.418,303.678L326.418,326.013C326.418,327.257 325.409,328.267 324.165,328.267C322.921,328.267 321.911,327.257 321.911,326.013Z" style="fill:white;"/>
            </g>
        </g>
    </g>
</svg>
